<svg id="圖層_1" data-name="圖層 1" xmlns="http://www.w3.org/2000/svg" xmlns:xlink="http://www.w3.org/1999/xlink" viewBox="0 0 425.2 510.24"><defs><style>.cls-1,.cls-5{fill:none;}.cls-2{clip-path:url(#clip-path);}.cls-3{fill:#dcdbdb;}.cls-4{fill:#bbbbba;}.cls-5{stroke:#fff;stroke-miterlimit:10;stroke-width:8px;}.cls-6{fill:#fff;}</style><clipPath id="clip-path"><rect class="cls-1" width="425.2" height="510.24"/></clipPath></defs><g class="cls-2"><rect class="cls-3" x="-4.45" y="-47.27" width="447" height="557.5"/><path class="cls-4" d="M435.37,504.64c-4.62-8.74-38.05-31.27-56.13-36.39-17.26-4.88-34.31-10.44-48.54-16.73l.22-.16-2.19-3.06c.71-.63.86-1,.33-1.16-5.32-1.24-14-47.21-14-47.21a6,6,0,0,0-.07.85v-.85c-8.77-1.92-17-3.6-25.47-5.05-2.55-15.86-4.62-33.24-4.09-40.77,8.73-9.58,16.53-19.77,19.22-27.85C311,307,313.26,296,313.26,296a13.8,13.8,0,0,0,9.61-4.46c3.85-4.45,4.81-33,7.7-41s4.81-21.38-4.82-20.49a10.62,10.62,0,0,0-4.92,1.82c1-5.92,11.55-20.9,11.55-20.9s8.89-50.33,7.11-53.69,8.89-7.55-7.11-35.23-87.15-67.95-116.5-71.31-70.25,0-87.15,43.63c0,0-44.46,9.22-50.68,52.85s28.45,74.66,28.45,88.08v.16c-1.89-4.64-4-8.37-5.94-9-5.78-1.79-16.36-1.79-14.44,19.59s4.26,4.83,12.51,44.54c4.82,23.16,13.48,5.35,13.48,5.35s8.06,36.87,27.33,63.29c.06,9.21.23,23.8.66,35.54q-12.3,2.18-24.62,5.12v1a4.86,4.86,0,0,0-.11-.55s-8.4,46.05-13.77,47.35c-.74.18-.14.91,1.5,2l-6.2,4.39A51.11,51.11,0,0,1,88,459.18l-16.4,7.24-13.44,3.25A70.07,70.07,0,0,0,27.79,485.5L.23,510.24H437.87S438,509.66,435.37,504.64Z"/></g><rect class="cls-5" width="425.2" height="510.24"/><path class="cls-6" d="M401.2,24V486.24H24V24H401.2m24-24H0V510.24H425.2V0Z"/></svg>